<svg id="visual" viewBox="0 0 900 600" width="900" height="600" xmlns="http://www.w3.org/2000/svg" xmlns:xlink="http://www.w3.org/1999/xlink" version="1.1"><rect x="0" y="0" width="900" height="600" fill="#001220"></rect><defs><linearGradient id="grad1_0" x1="33.3%" y1="0%" x2="100%" y2="100%"><stop offset="20%" stop-color="#001220" stop-opacity="1"></stop><stop offset="80%" stop-color="#001220" stop-opacity="1"></stop></linearGradient></defs><defs><linearGradient id="grad2_0" x1="0%" y1="0%" x2="66.7%" y2="100%"><stop offset="20%" stop-color="#001220" stop-opacity="1"></stop><stop offset="80%" stop-color="#001220" stop-opacity="1"></stop></linearGradient></defs><g transform="translate(900, 0)"><path d="M0 189.3C-23.8 186.2 -47.7 183.1 -72.4 174.9C-97.2 166.7 -122.9 153.4 -132.2 132.2C-141.6 111 -134.6 81.9 -141.4 58.6C-148.1 35.2 -168.7 17.6 -189.3 0L0 0Z" fill="#e43f5a"></path></g><g transform="translate(0, 600)"><path d="M0 -189.3C18.2 -171.7 36.3 -154.1 61.2 -147.8C86.1 -141.6 117.8 -146.7 133.8 -133.8C149.9 -121 150.4 -90.3 157.1 -65.1C163.7 -39.8 176.5 -19.9 189.3 0L0 0Z" fill="#e43f5a"></path></g></svg>