<svg id="visual" viewBox="0 0 1920 1080" width="1920" height="1080" xmlns="http://www.w3.org/2000/svg" xmlns:xlink="http://www.w3.org/1999/xlink" version="1.1"><rect x="0" y="0" width="1920" height="1080" fill="#5fbef4"></rect><defs><linearGradient id="grad1_0" x1="43.8%" y1="0%" x2="100%" y2="100%"><stop offset="14.444444444444446%" stop-color="#5fbef4" stop-opacity="1"></stop><stop offset="85.55555555555554%" stop-color="#5fbef4" stop-opacity="1"></stop></linearGradient></defs><defs><linearGradient id="grad2_0" x1="0%" y1="0%" x2="56.3%" y2="100%"><stop offset="14.444444444444446%" stop-color="#5fbef4" stop-opacity="1"></stop><stop offset="85.55555555555554%" stop-color="#5fbef4" stop-opacity="1"></stop></linearGradient></defs><g transform="translate(1920, 0)"><path d="M0 378C-40.6 376 -81.2 374.1 -116.8 359.5C-152.4 344.9 -183.1 317.8 -210.4 289.6C-237.8 261.4 -261.9 232.2 -275.9 200.4C-289.9 168.6 -293.8 134.3 -309.1 100.4C-324.4 66.6 -351.2 33.3 -378 0L0 0Z" fill="#E43F5A"></path></g><g transform="translate(0, 1080)"><path d="M0 -378C37.3 -359.2 74.7 -340.4 101.4 -311.9C128 -283.5 144.1 -245.3 158.7 -218.4C173.3 -191.6 186.6 -176 225.7 -164C264.8 -152 329.8 -143.5 359.5 -116.8C389.2 -90.1 383.6 -45 378 0L0 0Z" fill="#E43F5A"></path></g></svg>