<?xml version="1.0" encoding="utf-8"?>
<!-- Generator: Adobe Illustrator 22.0.1, SVG Export Plug-In . SVG Version: 6.00 Build 0)  -->
<svg version="1.1" id="Layer_1" xmlns="http://www.w3.org/2000/svg" xmlns:xlink="http://www.w3.org/1999/xlink" x="0px" y="0px"
	 viewBox="0 0 100 125" style="enable-background:new 0 0 100 125;" xml:space="preserve">
<title>Forward</title>
<g>
	<path d="M62.8,22.9L62.8,22.9c1.1,0,2,0.9,2,2l0,37.9c0,1.6,1.3,3,3,3l18,0.2c0.4,0,0.8,0.4,0.8,0.8c0,0.3-0.2,0.6-0.4,0.9
		c0,0,0,0-0.1,0.1l-33.3,37.9c-0.1,0.1-0.2,0.1-0.4,0.1c0,0,0,0,0,0c0,0,0,0-0.1,0c0,0-0.1,0-0.1,0c-0.2,0-0.3-0.1-0.5-0.2l-33.1-38
		c0,0-0.1-0.1-0.1-0.1c-0.1-0.1-0.2-0.3-0.2-0.5c0-0.1,0-0.1,0-0.2c0-0.2,0.1-0.4,0.2-0.5c0.1-0.1,0.3-0.2,0.5-0.2c0,0,0,0,0,0
		c0,0,0,0,0,0l18-0.2c1.6,0,3-1.4,3-3l0-37.9c0-1.1,0.9-2,2-2L62.8,22.9 M62.8,19.9l-20.7,0c-2.8,0-5,2.2-5,5l0,37.9l-18,0.2
		c0,0,0,0,0,0c-1,0-2,0.4-2.7,1.1c-0.7,0.7-1.1,1.7-1.1,2.7c0,1,0.3,2,1.1,2.8l33.2,38.1c0.7,0.7,1.6,1.1,2.6,1.1c0,0,0.1,0,0.1,0
		c0,0,0.1,0,0.1,0c1,0,1.9-0.4,2.6-1.1l33.4-38c0.7-0.8,1.1-1.8,1.2-2.9c0-2.1-1.7-3.8-3.8-3.8l-18-0.2l0-37.9
		C67.8,22.1,65.6,19.9,62.8,19.9L62.8,19.9z"/>
</g>
</svg>
