<?xml version="1.0" encoding="utf-8"?>
<!-- Generator: Adobe Illustrator 22.0.1, SVG Export Plug-In . SVG Version: 6.00 Build 0)  -->
<svg version="1.1" id="Layer_1" xmlns="http://www.w3.org/2000/svg" xmlns:xlink="http://www.w3.org/1999/xlink" x="0px" y="0px"
	 viewBox="0 0 100 125" style="enable-background:new 0 0 100 125;" xml:space="preserve">
<title>Forward</title>
<path d="M16.4,69.6c-0.7-0.7-1.1-1.7-1.1-2.8c0-1,0.4-2,1.1-2.7c0.7-0.7,1.7-1.1,2.7-1.1l18-0.2l0-37.9c0-2.8,2.2-5,5-5l20.7,0
	c2.8,0,5,2.2,5,5l0,37.9l18,0.2c2.1,0,3.8,1.7,3.8,3.8c0,1.1-0.5,2.1-1.2,2.9l-33.4,38c-0.7,0.7-1.6,1.1-2.6,1.1c-1,0-2-0.4-2.8-1.1
	L16.4,69.6z"/>
</svg>
