<?xml version="1.0" encoding="utf-8"?>
<!-- Generator: Adobe Illustrator 23.0.1, SVG Export Plug-In . SVG Version: 6.00 Build 0)  -->
<svg version="1.1" id="visual" xmlns="http://www.w3.org/2000/svg" xmlns:xlink="http://www.w3.org/1999/xlink" x="0px" y="0px"
	 viewBox="0 0 1920 1080" style="enable-background:new 0 0 1920 1080;" xml:space="preserve">
<style type="text/css">
	.st0{fill:#E43F5A;}
	.st1{fill:#D668B9;}
	.st2{fill:#979AF0;}
	.st3{fill:#5FBEF4;}
</style>
<path class="st0" d="M0,768l45.7,10.7c45.6,10.6,137,32,228.5,30.3s183.1-26.3,274.6-12.5S731.7,862.7,823,865s182.7-45.3,274-40
	s182.7,63.7,274.2,77.2s183.1-17.9,274.6-26.2s182.9,6.3,228.5,13.7l45.7,7.3v184h-45.7c-45.6,0-137,0-228.5,0s-183.1,0-274.6,0
	s-182.9,0-274.2,0s-182.7,0-274,0s-182.7,0-274.2,0s-183.1,0-274.6,0s-182.9,0-228.5,0H0V768z"/>
<path class="st1" d="M0,983l45.7-16.3c45.6-16.4,137-49,228.5-65.5s183.1-16.9,274.6-6.4s182.9,31.9,274.2,49
	c91.3,17.2,182.7,30.2,274,23c91.3-7.1,182.7-34.5,274.2-56.3s183.1-38.2,274.6-46.2s182.9-7.6,228.5-7.5l45.7,0.2v224h-45.7
	c-45.6,0-137,0-228.5,0s-183.1,0-274.6,0s-182.9,0-274.2,0s-182.7,0-274,0s-182.7,0-274.2,0s-183.1,0-274.6,0s-182.9,0-228.5,0H0
	V983z"/>
<path class="st2" d="M0,945l45.7-8.7c45.6-8.6,137-26,228.5-39.1c91.5-13.2,183.1-22.2,274.6-9.5c91.5,12.6,182.9,47,274.2,47
	s182.7-34.4,274-37.2s182.7,25.8,274.2,27s183.1-25.2,274.6-19.7s182.9,42.9,228.5,61.5L1920,985v96h-45.7c-45.6,0-137,0-228.5,0
	s-183.1,0-274.6,0s-182.9,0-274.2,0s-182.7,0-274,0s-182.7,0-274.2,0s-183.1,0-274.6,0s-182.9,0-228.5,0H0V945z"/>
<path class="st3" d="M0,918l45.7,16.2c45.6,16.1,137,48.5,228.5,65.5s183.1,18.6,274.6,2.6s182.9-49.6,274.2-46.6
	s182.7,42.6,274,45.8s182.7-30.2,274.2-34.7s183.1,19.9,274.6,23.4s182.9-13.9,228.5-22.5l45.7-8.7v122h-45.7c-45.6,0-137,0-228.5,0
	s-183.1,0-274.6,0s-182.9,0-274.2,0s-182.7,0-274,0s-182.7,0-274.2,0s-183.1,0-274.6,0s-182.9,0-228.5,0H0V918z"/>
</svg>
