<?xml version="1.0" encoding="utf-8"?>
<!-- Generator: Adobe Illustrator 23.0.1, SVG Export Plug-In . SVG Version: 6.00 Build 0)  -->
<svg version="1.1" id="visual" xmlns="http://www.w3.org/2000/svg" xmlns:xlink="http://www.w3.org/1999/xlink" x="0px" y="0px"
	 viewBox="0 0 1920 1080" style="enable-background:new 0 0 1920 1080;" xml:space="preserve">
<style type="text/css">
	.st0{fill:#E43F5A;}
	.st1{fill:#D668B9;}
	.st2{fill:#979AF0;}
	.st3{fill:#5FBEF4;}
</style>
<path class="st0" d="M0-75h45.7c45.6,0,137,0,228.5,0s183.1,0,274.6,0s182.9,0,274.2,0s182.7,0,274,0s182.7,0,274.2,0
	s183.1,0,274.6,0s182.9,0,228.5,0h45.7v184l-45.7,7.3c-45.6,7.4-137,22-228.5,13.7s-183.1-39.7-274.6-26.2S1188.3,175.7,1097,181
	s-182.7-42.3-274-40s-182.7,54.7-274.2,68.5S365.7,198.7,274.2,197S91.3,216.7,45.7,227.3L0,238L0-75z"/>
<path class="st1" d="M1920,51l-45.7,16.3c-45.6,16.4-137,49-228.5,65.5c-91.5,16.5-183.1,16.9-274.6,6.4s-182.9-31.9-274.2-49
	C1005.7,73,914.3,60,823,67.2c-91.3,7.1-182.7,34.5-274.2,56.3s-183.1,38.2-274.6,46.2s-182.9,7.6-228.5,7.5L0,177L0-47h45.7
	c45.6,0,137,0,228.5,0s183.1,0,274.6,0s182.9,0,274.2,0s182.7,0,274,0s182.7,0,274.2,0s183.1,0,274.6,0s182.9,0,228.5,0h45.7V51z"/>
<path class="st2" d="M1920,60.6l-45.7,8.7c-45.6,8.6-137,26-228.5,39.1c-91.5,13.2-183.1,22.2-274.6,9.5
	c-91.5-12.6-182.9-47-274.2-47s-182.7,34.4-274,37.2s-182.7-25.8-274.2-27s-183.1,25.2-274.6,19.7S91.3,57.9,45.7,39.3L0,20.6l0-96
	h45.7c45.6,0,137,0,228.5,0s183.1,0,274.6,0s182.9,0,274.2,0s182.7,0,274,0s182.7,0,274.2,0s183.1,0,274.6,0s182.9,0,228.5,0h45.7
	V60.6z"/>
<path class="st3" d="M1920,163l-45.7-16.2c-45.6-16.1-137-48.5-228.5-65.5c-91.5-17-183.1-18.6-274.6-2.6s-182.9,49.6-274.2,46.6
	S914.3,82.7,823,79.5s-182.7,30.2-274.2,34.7S365.7,94.3,274.2,90.8S91.3,104.7,45.7,113.3L0,122L0,0l45.7,0c45.6,0,137,0,228.5,0
	c91.5,0,183.1,0,274.6,0S731.7,0,823,0c91.3,0,182.7,0,274,0s182.7,0,274.2,0s183.1,0,274.6,0c91.5,0,182.9,0,228.5,0l45.7,0V163z"
	/>
</svg>
