<?xml version="1.0" encoding="utf-8"?>
<!-- Generator: Adobe Illustrator 22.0.1, SVG Export Plug-In . SVG Version: 6.00 Build 0)  -->
<svg version="1.1" id="Layer_1" xmlns="http://www.w3.org/2000/svg" xmlns:xlink="http://www.w3.org/1999/xlink" x="0px" y="0px"
	 viewBox="0 0 100 125" style="enable-background:new 0 0 100 125;" xml:space="preserve">
<title>Forward</title>
<g>
	<path d="M52.3,22.9L52.3,22.9c0.1,0,0.1,0,0.1,0c0,0,0.1,0,0.1,0c0.1,0,0.3,0.1,0.4,0.1l33.3,37.9c0,0,0,0,0.1,0.1
		c0.2,0.2,0.4,0.6,0.4,0.9c0,0.4-0.4,0.8-0.8,0.8l-18,0.2c-1.6,0-3,1.4-3,3l0,37.9c0,1.1-0.9,2-2,2l-20.7,0c-1.1,0-2-0.9-2-2l0-37.9
		c0-1.6-1.3-3-3-3l-18-0.2c0,0,0,0,0,0c0,0,0,0,0,0c-0.2,0-0.4-0.1-0.5-0.2c-0.1-0.1-0.2-0.3-0.2-0.5c0-0.1,0-0.1,0-0.2
		c0-0.2,0.1-0.4,0.2-0.5c0,0,0.1-0.1,0.1-0.1l33.1-38C52,22.9,52.1,22.9,52.3,22.9 M52.3,19.9c-1,0-1.9,0.4-2.6,1.1L16.4,59.1
		c-0.7,0.7-1.1,1.7-1.1,2.7c0,1,0.4,2,1.1,2.7c0.7,0.7,1.7,1.1,2.7,1.1c0,0,0,0,0,0l18,0.2l0,37.9c0,2.8,2.2,5,5,5l20.7,0
		c2.8,0,5-2.2,5-5l0-37.9l18-0.2c2.1,0,3.8-1.7,3.8-3.8c0-1.1-0.5-2.1-1.2-2.9L55.1,21c-0.7-0.7-1.6-1.1-2.6-1.1c0,0-0.1,0-0.1,0
		C52.4,19.9,52.4,19.9,52.3,19.9L52.3,19.9z"/>
</g>
</svg>
